HIERARCHY
ROOT Hips
{
	OFFSET 0.000000 0.000000 0.000000 
	CHANNELS 6 Xposition Yposition Zposition Yrotation Zrotation Xrotation 
	JOINT Lumbar
	{
		OFFSET 0.000000 0.000000 0.000000 
		CHANNELS 3 Zrotation Xrotation Yrotation
		JOINT Neck
		{
			OFFSET 0.000000 0.445665 0.000000 
			CHANNELS 3 Zrotation Xrotation Yrotation
			End Site
			{
				OFFSET 0.000000 0.227535 0.000000 
			}
		}
		JOINT RightShoulder
		{
			OFFSET 0.019635 0.377685 0.194865 
			CHANNELS 3 Zrotation Xrotation Yrotation
			JOINT RightElbow
			{
				OFFSET 0.000000 -0.243375 0.000000 
				CHANNELS 2 Zrotation Yrotation
				JOINT RightWrist
				{
					OFFSET 0.000000 -0.264825 0.000000 
					CHANNELS 2 Zrotation Xrotation
					End Site
					{
						OFFSET 0.006600 -0.176220 0.000990 
					}
				}
			}
		}
		JOINT LeftShoulder
		{
			OFFSET 0.019635 0.377685 -0.194865 
			CHANNELS 3 Zrotation Xrotation Yrotation
			JOINT LeftElbow
			{
				OFFSET 0.000000 -0.243375 0.000000 
				CHANNELS 2 Zrotation Yrotation
				JOINT LeftWrist
				{
					OFFSET 0.000000 -0.264825 0.000000 
					CHANNELS 2 Zrotation Xrotation
					End Site
					{
						OFFSET 0.006600 -0.176220 -0.000990 
					}
				}
			}
		}
	}
	JOINT RightHip
	{
		OFFSET 0.052140 -0.069960 0.075570 
		CHANNELS 3 Zrotation Xrotation Yrotation
		JOINT RightKnee
		{
			OFFSET 0.000000 -0.402270 0.000000 
			CHANNELS 1 Zrotation
			JOINT RightAnkle
			{
				OFFSET 0.000000 -0.404085 0.000000 
				CHANNELS 3 Zrotation Xrotation Yrotation
				End Site
				{
					OFFSET 0.204105 -0.089430 0.008415 
				}
			}
		}
	}
	JOINT LeftHip
	{
		OFFSET 0.052140 -0.069960 -0.075570 
		CHANNELS 3 Zrotation Xrotation Yrotation
		JOINT LeftKnee
		{
			OFFSET 0.000000 -0.402270 0.000000 
			CHANNELS 1 Zrotation
			JOINT LeftAnkle
			{
				OFFSET 0.000000 -0.404085 0.000000 
				CHANNELS 3 Zrotation Xrotation Yrotation
				End Site
				{
					OFFSET 0.204105 -0.089430 -0.008415 
				}
			}
		}
	}
}
MOTION
Frames: 25
Frame Time: 0.02
-0.00144 0.0001 -0.00056 175.4218 -46.16722 0.79403 56.00998 2.49752 2.54855 -4.29369 -9.16017 -1.29016 162.33008 -74.75536 -52.12988 13.03674 69.99728 0.94474 -8.33255 159.80999 70.32565 73.009 9.49794 -78.41485 0.95276 9.37246 48.36243 -4.19651 -13.13358 -18.95672 -7.59778 -3.653 -4.06849 52.67422 4.20516 3.93946 -24.37035 -8.14113 3.82003 4.17826
-0.00063 7e-05 -0.00059 175.41162 -46.15853 0.7916 56.00558 2.48699 2.54495 -4.32827 -9.1485 -1.28969 161.95532 -74.78619 -52.42417 13.01804 69.97008 0.96828 -8.32388 159.56426 70.35413 73.34035 9.43653 -78.41643 0.95116 9.33463 48.4069 -4.20762 -13.23727 -18.96845 -7.58978 -3.64586 -4.06425 52.69833 4.31677 4.41098 -24.36616 -8.10665 3.78195 4.15579
0.00019 3e-05 -0.00061 175.4014 -46.14985 0.78918 56.00123 2.47646 2.54142 -4.3629 -9.13661 -1.28923 161.5811 -74.81706 -52.7181 12.9993 69.94305 0.99187 -8.31511 159.31898 70.38268 73.6716 9.37521 -78.41798 0.94968 9.29676 48.45129 -4.21868 -13.3405 -18.98015 -7.58181 -3.63874 -4.06002 52.72241 4.42807 4.88122 -24.362 -8.07227 3.74399 4.13339
0.00099 0 -0.00064 175.39123 -46.14118 0.78676 55.99685 2.46596 2.53784 -4.39739 -9.12494 -1.28876 161.20745 -74.8478 -53.01154 12.98065 69.91592 1.01536 -8.30644 159.07399 70.41108 74.00208 9.31398 -78.41956 0.9481 9.25903 48.49563 -4.22975 -13.44385 -18.99184 -7.57384 -3.63162 -4.05579 52.74647 4.53934 5.35131 -24.35782 -8.03789 3.70603 4.11099
0.00181 -3e-05 -0.00066 175.38115 -46.13251 0.78431 55.99241 2.45547 2.53416 -4.4318 -9.11357 -1.28829 160.83332 -74.87847 -53.30524 12.96204 69.88867 1.03877 -8.29792 158.82859 70.43941 74.3323 9.25268 -78.42114 0.94637 9.22138 48.54001 -4.24086 -13.54769 -19.00356 -7.56584 -3.62447 -4.05155 52.77054 4.65093 5.82263 -24.35363 -8.00341 3.66797 4.08853
0.00262 -6e-05 -0.00068 175.37061 -46.12379 0.78196 55.98826 2.44485 2.53094 -4.4669 -9.10057 -1.28784 160.45885 -74.90978 -53.59968 12.94305 69.86212 1.06274 -8.28864 158.58353 70.46843 74.6657 9.19132 -78.4226 0.94538 9.18304 48.58443 -4.25182 -13.64963 -19.01522 -7.55795 -3.61744 -4.04737 52.79463 4.76162 6.29059 -24.34953 -7.96924 3.6302 4.06626
0.00343 -9e-05 -0.00071 175.361 -46.11519 0.77941 55.98352 2.43452 2.52683 -4.50048 -9.09091 -1.28735 160.08589 -74.93969 -53.89206 12.92488 69.834 1.08555 -8.2809 158.33826 70.49591 74.99235 9.13018 -78.42438 0.94292 9.14617 48.62873 -4.26307 -13.75531 -19.027 -7.54984 -3.61017 -4.04306 52.81866 4.87397 6.7647 -24.34523 -7.93449 3.59189 4.04363
0.00424 -0.00013 -0.00073 175.35056 -46.10645 0.77707 55.97934 2.4239 2.52349 -4.53564 -9.07808 -1.2869 159.71078 -74.97104 -54.18678 12.90588 69.80769 1.10941 -8.27171 158.09283 70.52502 75.32519 9.0688 -78.42574 0.94179 9.10789 48.67312 -4.27406 -13.85749 -19.03866 -7.54194 -3.60312 -4.03887 52.84273 4.98482 7.23333 -24.34113 -7.90026 3.55407 4.02133
0.00505 -0.00016 -0.00076 175.33899 -46.09767 0.77488 55.97579 2.41301 2.52127 -4.57206 -9.0617 -1.28649 159.33581 -75.0036 -54.48285 12.88613 69.78218 1.13465 -8.26083 157.84843 70.55534 75.66601 9.00722 -78.4271 0.94242 9.06805 48.71772 -4.2847 -13.9556 -19.05021 -7.53426 -3.59633 -4.03482 52.86695 5.09379 7.69474 -24.33725 -7.86671 3.51689 3.99944
0.00586 -0.00019 -0.00079 175.33355 -46.08952 0.7715 55.96845 2.40392 2.51315 -4.59923 -9.06672 -1.28581 158.96834 -75.02756 -54.76661 12.87149 69.74781 1.15226 -8.25992 157.60179 70.57632 75.96219 8.94708 -78.43001 0.93329 9.03766 48.76143 -4.29726 -14.07773 -19.06247 -7.52522 -3.58804 -4.02995 52.89062 5.21343 8.19611 -24.33204 -7.82936 3.47614 3.97523
0.00667 -0.00022 -0.0008 175.31541 -46.0798 0.77084 55.9692 2.39085 2.51715 -4.64716 -9.02598 -1.28572 158.57981 -75.07068 -55.07917 12.84556 69.73483 1.18577 -8.23786 157.35755 70.6185 76.35165 8.88371 -78.42865 0.94454 8.98707 48.80682 -4.30584 -14.14884 -19.07321 -7.51908 -3.58293 -4.02682 52.91524 5.31062 8.61415 -24.32965 -7.79998 3.44285 3.95587
0.00746 -0.00025 -0.00075 175.26006 -46.06742 0.77609 55.99142 2.36834 2.55744 -4.74282 -8.86346 -1.28727 158.17014 -75.16036 -55.45377 12.791 69.75831 1.265 -8.15679 157.13122 70.70857 77.00656 8.81259 -78.42197 1.01291 8.88085 48.85852 -4.30274 -14.08118 -19.07995 -7.52088 -3.58645 -4.02837 52.94403 5.34504 8.79297 -24.3349 -7.7931 3.43065 3.95033
0.00824 -0.00028 -0.00067 175.19233 -46.05307 0.78437 56.02182 2.34154 2.60943 -4.86117 -8.65432 -1.28945 157.72873 -75.27169 -55.86405 12.72365 69.80687 1.35997 -8.05386 156.89986 70.82272 77.75279 8.73776 -78.40866 1.10081 8.75322 48.91157 -4.29581 -13.96197 -19.08516 -7.52561 -3.59319 -4.03167 52.97341 5.35709 8.88984 -24.34301 -7.79414 3.42581 3.94958
0.00903 -0.0003 -0.0006 175.13185 -46.03864 0.79227 56.0491 2.31575 2.65401 -4.97501 -8.46399 -1.29132 157.28275 -75.37537 -56.26448 12.66188 69.85916 1.44613 -7.96254 156.67021 70.93142 78.45181 8.66422 -78.39572 1.17985 8.63701 48.96296 -4.29113 -13.86567 -19.09093 -7.52904 -3.59852 -4.03422 53.00154 5.38022 9.03139 -24.34985 -7.79117 3.41717 3.94629
0.00982 -0.00033 -0.00054 175.06471 -46.02864 0.79592 56.07426 2.29395 2.70712 -5.06389 -8.28346 -1.29315 156.93249 -75.46451 -56.62323 12.6052 69.84977 1.53859 -7.86734 156.4649 71.01333 79.17763 8.5934 -78.39876 1.26171 8.51842 49.0189 -4.28425 -13.77185 -19.09713 -7.53233 -3.6036 -4.03657 53.03402 5.39967 9.14228 -24.35651 -7.78992 3.41045 3.94451
0.01061 -0.00036 -0.00046 175.00824 -46.00856 0.80919 56.10527 2.26278 2.74564 -5.2108 -8.07163 -1.29537 156.35581 -75.59574 -57.09591 12.52969 69.9721 1.62257 -7.77096 156.18023 71.16133 79.86614 8.51471 -78.36086 1.33878 8.3937 49.06553 -4.28106 -13.66016 -19.10225 -7.53662 -3.61001 -4.03977 53.05733 5.42118 9.29646 -24.36429 -7.78696 3.40148 3.94077
0.0114 -0.0004 -0.00032 174.98682 -45.96441 0.84803 56.15444 2.20702 2.73758 -5.50616 -7.78356 -1.29739 155.34982 -75.7846 -57.70825 12.45183 70.46665 1.65538 -7.71185 155.88633 71.44224 80.43082 8.42887 -78.26682 1.42621 8.31058 49.08752 -4.28894 -13.51622 -19.10331 -7.5427 -3.61903 -4.04481 53.05757 5.45649 9.6 -24.37392 -7.77728 3.38457 3.93013
0.01221 -0.00045 -0.00015 174.97621 -45.90959 0.89652 56.20825 2.14191 2.71516 -5.85988 -7.46588 -1.30001 154.09668 -76.0276 -58.4605 12.34806 71.08424 1.67248 -7.64593 155.45567 71.79402 80.93738 8.33428 -78.12378 1.50155 8.21332 49.0999 -4.30073 -13.35549 -19.10367 -7.54969 -3.62933 -4.05065 53.04822 5.49409 9.94777 -24.38472 -7.76564 3.36516 3.91742
0.01302 -0.0005 0 174.95886 -45.85748 0.94076 56.25756 2.08098 2.7015 -6.19151 -7.1625 -1.30304 152.81459 -76.27752 -59.26342 12.22402 71.64335 1.72656 -7.55978 154.97378 72.14571 81.49123 8.23274 -77.964 1.56543 8.08606 49.11566 -4.31072 -13.19924 -19.10523 -7.55645 -3.63927 -4.05621 53.04155 5.529 10.26938 -24.39528 -7.75489 3.34681 3.90584
0.01378 -0.00054 0.00015 174.94835 -45.81426 0.98446 56.31809 2.02032 2.67852 -6.50698 -6.85371 -1.30311 152.06727 -76.38455 -59.60383 12.22958 72.23837 1.70079 -7.57053 155.04472 72.3747 82.03031 8.17071 -77.95924 1.70685 8.10684 49.13534 -4.32049 -13.05356 -19.10276 -7.56266 -3.64845 -4.06152 53.04154 5.57038 10.61524 -24.40453 -7.7443 3.32889 3.89359
0.01465 -0.0006 0.00032 174.92688 -45.75011 1.03161 56.35518 1.95678 2.67172 -6.86749 -6.55001 -1.30959 150.22378 -76.815 -60.91702 11.96582 72.75713 1.78023 -7.37911 153.83859 72.86067 82.49716 8.03251 -77.6319 1.677 7.82248 49.14494 -4.33193 -12.88371 -19.10889 -7.57004 -3.65938 -4.06746 53.02592 5.59877 10.92027 -24.41695 -7.73294 3.30958 3.88225
0.01577 -0.00073 0.00055 174.86766 -45.63008 1.08501 56.33544 1.88903 2.71026 -7.35561 -6.26584 -1.33262 144.74677 -78.0135 -65.08324 10.90788 73.31067 2.65443 -6.62476 149.97203 74.16242 83.55809 7.61733 -76.32343 1.2384 6.64393 49.12577 -4.34495 -12.64155 -19.1359 -7.58166 -3.67557 -4.07536 52.96491 5.59411 11.11899 -24.43589 -7.71882 3.28528 3.87311
0.01701 -0.00088 0.0008 174.79789 -45.48964 1.14153 56.29011 1.81848 2.7661 -7.88292 -5.9883 -1.36224 138.28864 -79.55717 -70.18623 9.59051 73.74263 3.5495 -5.67012 144.69518 75.693 84.42126 7.13945 -74.71083 0.61964 5.16854 49.09748 -4.35985 -12.37772 -19.17216 -7.59414 -3.69327 -4.08375 52.88944 5.57606 11.27274 -24.45826 -7.70412 3.25987 3.86503
0.01821 -0.00103 0.00104 174.73633 -45.35887 1.19739 56.25067 1.74823 2.81572 -8.38163 -5.70921 -1.3895 132.73153 -81.015 -74.72788 8.42917 74.0355 4.09665 -4.80932 139.48546 77.04301 84.8394 6.73442 -73.30503 0.03887 3.86605 49.07539 -4.3754 -12.13041 -19.20623 -7.60541 -3.70986 -4.09168 52.82353 5.56164 11.43559 -24.48037 -7.69044 3.23625 3.85704
0.01933 -0.00113 0.00128 174.66119 -45.22555 1.25106 56.23608 1.68163 2.85764 -8.93098 -5.42319 -1.41417 125.29021 -82.17164 -79.84566 7.10576 75.10805 6.03935 -3.92955 136.58807 78.73592 87.43619 6.1386 -71.60927 -0.37072 2.40521 49.0439 -4.38512 -11.85427 -19.23184 -7.62026 -3.72853 -4.10078 52.74439 5.55646 11.64592 -24.49728 -7.67371 3.20754 3.8468
